<svg width="697" height="571" viewBox="0 0 697 571" fill="none" xmlns="http://www.w3.org/2000/svg">
<path opacity="0.957" d="M199.772 0.5H153.176C141.686 1.89267 130.126 3.7222 118.477 5.9886C47.7148 23.1848 8.55439 68.2579 0.995949 141.208C0.334684 230.356 0.334684 319.505 0.995949 408.653C2.06964 425.867 4.7137 442.832 8.92716 459.547C22.9902 512.954 43.8094 547.216 97.1617 560.338C97.1617 560.338 127.211 567.248 144.749 569.319C167.247 571.976 199.276 569.319 199.276 569.319C199.276 569.319 252.316 567.213 279.084 548.363C290.526 540.304 296.434 536.387 306.348 525.41C316.262 514.433 313.188 518.281 316.262 514.433C336.02 485.703 346.926 453.769 348.978 418.632C350.594 327.17 350.921 235.693 349.969 144.202C347.937 100.693 330.915 64.6011 298.912 35.9264C269.18 14.6965 236.137 2.88767 199.772 0.5Z" fill="black"/>
<path fill-rule="evenodd" clip-rule="evenodd" d="M154.922 9.48148C191.278 7.30391 226.432 12.7925 260.386 25.9473C299.554 44.7008 323.478 75.8029 332.159 119.254C333.976 129.159 335.274 139.138 336.065 149.191C336.72 232.352 336.72 315.513 336.065 398.673C335.157 427.588 329.62 455.53 319.465 482.499C305.403 514.159 282.133 535.282 249.644 545.868C235.934 550.285 221.94 553.278 207.654 554.849C169.16 559.576 131.398 556.249 94.3787 544.87C55.9833 530.246 31.0822 502.803 19.6756 462.541C15.1944 447.55 12.2649 432.249 10.887 416.636C9.30602 326.169 8.97987 235.69 9.91048 145.2C14.7178 80.1011 47.431 37.6891 108.05 17.9639C123.635 14.1427 139.259 11.3153 154.922 9.48148Z" fill="#F16322"/>
<path fill-rule="evenodd" clip-rule="evenodd" d="M165.073 96.3011C183.652 93.3865 199.346 98.7087 212.165 112.268C219.491 123.79 223.457 136.43 224.062 150.189C224.726 236.343 224.726 322.498 224.062 408.653C223.398 420.311 221.088 431.621 217.122 442.582C209.478 461.079 195.599 470.392 175.483 470.524C152.671 468.856 138.127 456.88 131.861 434.599C128.927 425.52 127.271 416.205 126.904 406.657C126.24 321.833 126.24 237.009 126.904 152.185C127.123 132.859 134.231 116.727 148.22 103.786C153.563 100.396 159.175 97.901 165.073 96.3011Z" fill="#828385"/>
<path fill-rule="evenodd" clip-rule="evenodd" d="M167.056 105.283C187.013 101.938 201.389 109.255 210.182 127.237C212.691 134.699 214.346 142.35 215.139 150.189C215.804 237.009 215.804 323.829 215.139 410.649C213.96 420.898 211.65 430.878 208.2 440.587C202.112 454.304 191.534 461.29 176.475 461.543C156.676 459.918 144.443 449.273 139.793 429.609C137.721 422.773 136.402 415.788 135.827 408.653C135.163 322.499 135.163 236.344 135.827 150.189C136.789 134.459 142.906 121.319 154.168 110.771C158.352 108.325 162.645 106.495 167.056 105.283Z" fill="black"/>
<path opacity="0.965" fill-rule="evenodd" clip-rule="evenodd" d="M296.213 40C342.592 40 388.97 40 435.349 40C435.349 100.352 435.349 160.706 435.349 221.059C459.303 221.059 483.256 221.059 507.21 221.059C507.21 160.706 507.21 100.352 507.21 40C553.589 40 599.968 40 646.346 40C646.346 202 646.346 364 646.346 526C599.968 526 553.589 526 507.21 526C507.21 460.202 507.21 394.403 507.21 328.605C483.256 328.605 459.303 328.605 435.349 328.605C435.349 394.403 435.349 460.202 435.349 526C388.97 526 342.592 526 296.213 526C296.213 364 296.213 202 296.213 40Z" fill="black"/>
<path fill-rule="evenodd" clip-rule="evenodd" d="M309.973 53.6135C346.668 53.6135 383.363 53.6135 420.058 53.6135C420.058 113.966 420.058 174.32 420.058 234.672C453.96 235.123 487.597 234.668 520.97 233.311C520.97 173.412 520.97 113.513 520.97 53.6135C557.665 53.6135 594.361 53.6135 631.056 53.6135C631.056 206.537 631.056 359.463 631.056 512.387C594.361 512.387 557.665 512.387 520.97 512.387C520.97 447.042 520.97 381.698 520.97 316.353C487.842 316.353 454.715 316.353 421.587 316.353C420.06 381.466 419.55 446.811 420.058 512.387C383.363 512.387 346.668 512.387 309.973 512.387C309.973 359.463 309.973 206.537 309.973 53.6135Z" fill="#818386"/>
<path d="M674.758 494.236C674.441 502.198 673.309 512.051 669.128 518.095C669.128 518.095 660.562 523.455 654.728 524.811C648.638 526.226 644.982 526.558 638.934 524.811C633.9 523.356 626.636 518.095 626.636 518.095C626.636 518.095 618.409 509.698 619.154 494.236C622.197 426.207 626.989 326.604 630.686 258.708C622.224 247.085 613.931 240.05 604.869 229.501C599.007 211.682 594.084 198.06 594.891 178.283C596.622 138.523 599.824 98.9994 604.495 59.7098C607.528 53.9258 610.561 53.9258 613.594 59.7098C616.707 77.8717 619.234 96.1883 621.176 114.658H623.198C624.937 92.433 626.959 70.2599 629.264 48.1418C632.577 47.7311 635.778 48.2126 638.868 49.5878C641.143 71.2823 643.334 92.9724 645.44 114.658L647.462 111.766C649.152 90.4939 651.174 69.2868 653.528 48.1418C656.841 47.7311 660.041 48.2126 663.132 49.5878C665.397 72.7442 667.755 95.8803 670.209 118.996C672.385 99.572 675.082 80.2923 678.297 61.1558C681.037 55.0031 684.07 54.5215 687.395 59.7098C691.534 91.3037 694.567 123.116 696.494 155.146C697.169 171.534 697.169 187.923 696.494 204.311C695.997 214.624 691.941 220.533 688.394 229.501C678.995 240.533 672.388 246.604 663.59 258.708C665.509 290.564 667.229 324.092 668.817 357.896C671.484 412.145 672.59 443.223 674.758 494.236Z" fill="black"/>
<path fill-rule="evenodd" clip-rule="evenodd" d="M661.231 509.75C659.373 514.836 639.346 522.573 632.431 509.75C629.075 503.529 629.284 497.149 628.709 490.279C628.412 459.65 629.087 429.052 630.734 398.485C634.33 349.403 637.03 300.262 638.833 251.059C629.685 238.953 620.236 227.362 610.485 216.288C606.397 203.226 604.541 189.55 604.917 175.259C605.87 148.94 607.727 122.747 610.485 96.6785C614.445 116.229 617.314 136.164 619.091 156.483C622.128 156.483 625.165 156.483 628.203 156.483C630.159 135.125 632.353 113.798 634.783 92.506C638.277 113.975 640.808 135.763 642.377 157.874C645.414 157.874 648.451 157.874 651.489 157.874C653.853 135.61 656.384 113.357 659.082 91.1152C661.985 112.776 664.178 134.566 665.663 156.483C668.7 156.483 671.737 156.483 674.774 156.483C677.187 135.972 680.055 115.573 683.38 95.2877C688.761 131.166 690.111 167.328 687.43 203.771C686.517 208.809 684.998 213.444 682.874 217.679C673.482 227.564 664.539 238.226 656.044 249.668C655.11 251.801 654.604 254.12 654.526 256.622C658.46 316.38 662.004 376.185 665.156 436.037C665.832 455.508 665.832 474.98 665.156 494.451C664.499 499.667 663.089 504.664 661.231 509.75Z" fill="#F16322"/>
<path opacity="0.948" fill-rule="evenodd" clip-rule="evenodd" d="M355.818 404.872C355.818 416.358 355.818 427.844 355.818 439.331C353.249 464.968 344.991 486.451 331.044 503.781C309.693 523.498 289.663 521.158 270.946 496.762C257.577 475.446 251.31 450.559 252.136 422.101C250.962 393.804 257.384 369.555 271.404 349.355C276.763 343.614 282.571 338.936 288.838 335.316C290.507 328.495 290.966 321.475 290.214 314.258C282.883 246.061 277.524 177.569 274.157 108.781C273.212 87.7935 277.8 69.7141 287.92 54.5408C309.968 40.2417 324.502 49.3873 331.503 81.9802C334.1 101.028 334.402 120.172 332.42 139.412C328.659 197.875 323.768 256.158 317.74 314.258C316.914 321.493 317.373 328.512 319.116 335.316C335.237 343.696 346.092 359.224 351.689 381.899C353.258 389.66 354.634 397.318 355.818 404.872Z" fill="#F16322"/>
<path fill-rule="evenodd" clip-rule="evenodd" d="M299.849 59.008C307.593 58.1159 313.86 61.9447 318.659 70.4943C321.265 76.4569 323.1 82.8382 324.164 89.6381C324.77 109.656 324.458 129.65 323.246 149.622C319.457 202.507 314.869 255.259 309.483 307.877C308.869 317.236 308.869 326.596 309.483 335.955C309.759 339.002 310.529 341.768 311.777 344.25C330.697 353.128 342.166 371.209 346.185 398.491C350.011 427.807 346.341 455.033 335.174 480.171C313.75 514.596 292.647 514.169 271.864 478.895C261.175 453.948 257.808 427.147 261.772 398.491C265.79 371.209 277.26 353.128 296.179 344.25C297.399 340.856 298.17 337.239 298.473 333.402C299.088 324.893 299.088 316.386 298.473 307.877C291.344 242.026 286.297 175.874 283.334 109.42C281.535 91.3993 285.205 76.0843 294.344 63.4749C296.115 61.6129 297.95 60.1247 299.849 59.008Z" fill="#FEFEFE"/>
</svg>
