<?xml version="1.0" encoding="UTF-8"?>
<!DOCTYPE svg PUBLIC "-//W3C//DTD SVG 1.1//EN" "http://www.w3.org/Graphics/SVG/1.1/DTD/svg11.dtd">
<svg xmlns="http://www.w3.org/2000/svg" version="1.1" width="1628px" height="882px" style="shape-rendering:geometricPrecision; text-rendering:geometricPrecision; image-rendering:optimizeQuality; fill-rule:evenodd; clip-rule:evenodd" xmlns:xlink="http://www.w3.org/1999/xlink">
<g><path style="opacity:0.957" fill="#818284" d="M 1073.5,-0.5 C 1089.17,-0.5 1104.83,-0.5 1120.5,-0.5C 1157.18,1.89263 1190.51,13.726 1220.5,35C 1252.78,63.7342 1269.95,99.9009 1272,143.5C 1272.96,235.181 1272.63,326.848 1271,418.5C 1268.93,453.71 1257.93,485.71 1238,514.5C 1234.9,518.356 1231.57,522.023 1228,525.5C 1227.5,548.831 1227.33,572.164 1227.5,595.5C 1192.5,595.5 1157.5,595.5 1122.5,595.5C 1122.5,613.5 1122.5,631.5 1122.5,649.5C 1156.17,649.5 1189.83,649.5 1223.5,649.5C 1223.5,675.833 1223.5,702.167 1223.5,728.5C 1189.83,728.5 1156.17,728.5 1122.5,728.5C 1122.5,750.5 1122.5,772.5 1122.5,794.5C 1159.17,794.5 1195.83,794.5 1232.5,794.5C 1232.5,820.833 1232.5,847.167 1232.5,873.5C 1165.17,873.5 1097.83,873.5 1030.5,873.5C 1030.67,768.833 1030.5,664.166 1030,559.5C 976.185,546.351 942.185,513.018 928,459.5C 923.75,442.75 921.083,425.75 920,408.5C 919.333,319.167 919.333,229.833 920,140.5C 927.624,67.3986 967.124,22.2319 1038.5,5C 1050.25,2.72889 1061.91,0.89556 1073.5,-0.5 Z"/></g>
<g><path style="opacity:1" fill="#f16322" d="M 1077.5,8.5 C 1114.73,6.31791 1150.73,11.8179 1185.5,25C 1225.61,43.7924 1250.11,74.9591 1259,118.5C 1260.86,128.426 1262.19,138.426 1263,148.5C 1263.67,231.833 1263.67,315.167 1263,398.5C 1262.07,427.475 1256.4,455.475 1246,482.5C 1231.6,514.225 1207.77,535.392 1174.5,546C 1160.46,550.426 1146.13,553.426 1131.5,555C 1092.08,559.737 1053.41,556.403 1015.5,545C 976.181,530.346 950.681,502.846 939,462.5C 934.411,447.478 931.411,432.145 930,416.5C 928.381,325.845 928.047,235.178 929,144.5C 933.923,79.2662 967.423,36.7662 1029.5,17C 1045.46,13.1709 1061.46,10.3376 1077.5,8.5 Z"/></g>
<g><path style="opacity:0.956" fill="#818184" d="M 148.5,87.5 C 219.833,87.5 291.167,87.5 362.5,87.5C 362.667,113.835 362.5,140.169 362,166.5C 326.234,241.865 290.067,317.032 253.5,392C 291.832,392.5 330.165,392.667 368.5,392.5C 368.5,421.167 368.5,449.833 368.5,478.5C 292.5,478.5 216.5,478.5 140.5,478.5C 140.333,452.831 140.5,427.165 141,401.5C 177.5,325.833 214,250.167 250.5,174.5C 216.507,173.5 182.507,173.167 148.5,173.5C 148.5,144.833 148.5,116.167 148.5,87.5 Z"/></g>
<g><path style="opacity:0.964" fill="#818183" d="M 387.5,87.5 C 459.833,87.5 532.167,87.5 604.5,87.5C 604.5,116.167 604.5,144.833 604.5,173.5C 565.5,173.5 526.5,173.5 487.5,173.5C 487.5,193.5 487.5,213.5 487.5,233.5C 525.167,233.5 562.833,233.5 600.5,233.5C 600.5,262.167 600.5,290.833 600.5,319.5C 562.833,319.5 525.167,319.5 487.5,319.5C 487.5,343.833 487.5,368.167 487.5,392.5C 528.5,392.5 569.5,392.5 610.5,392.5C 610.5,421.167 610.5,449.833 610.5,478.5C 536.167,478.5 461.833,478.5 387.5,478.5C 387.5,348.167 387.5,217.833 387.5,87.5 Z"/></g>
<g><path style="opacity:0.979" fill="#828284" d="M 780.5,477.5 C 781.518,473.917 782.351,470.25 783,466.5C 783.667,452.5 783.667,438.5 783,424.5C 779.886,381.466 776.386,338.466 772.5,295.5C 772.577,293.701 773.077,292.034 774,290.5C 782.39,282.273 791.223,274.607 800.5,267.5C 802.598,264.455 804.098,261.122 805,257.5C 807.648,231.297 806.315,205.297 801,179.5C 797.716,194.085 794.883,208.752 792.5,223.5C 789.5,223.5 786.5,223.5 783.5,223.5C 782.034,207.741 779.868,192.074 777,176.5C 774.335,192.492 771.835,208.492 769.5,224.5C 766.5,224.5 763.5,224.5 760.5,224.5C 758.951,208.602 756.451,192.936 753,177.5C 750.599,192.809 748.432,208.143 746.5,223.5C 743.5,223.5 740.5,223.5 737.5,223.5C 735.745,208.89 732.911,194.557 729,180.5C 726.276,199.243 724.442,218.076 723.5,237C 723.129,247.275 724.962,257.108 729,266.5C 738.631,274.462 747.964,282.796 757,291.5C 755.219,326.877 752.552,362.21 749,397.5C 747.374,419.478 746.707,441.478 747,463.5C 747.568,468.44 748.735,473.107 750.5,477.5C 714.671,478.498 678.671,478.832 642.5,478.5C 642.5,348.167 642.5,217.833 642.5,87.5C 698.19,87.0381 753.857,87.5381 809.5,89C 856.672,94.1766 884.505,120.01 893,166.5C 896.754,189.971 896.088,213.304 891,236.5C 885.4,256.926 873.567,272.593 855.5,283.5C 876.512,292.341 888.679,308.007 892,330.5C 893.7,368.875 896.034,407.209 899,445.5C 899.676,453.519 903.01,460.186 909,465.5C 909.499,469.821 909.666,474.154 909.5,478.5C 866.33,478.832 823.33,478.499 780.5,477.5 Z"/></g>
<g><path style="opacity:1" fill="#828385" d="M 1085.5,95.5 C 1104.24,92.5793 1120.07,97.9126 1133,111.5C 1140.39,123.046 1144.39,135.712 1145,149.5C 1145.67,235.833 1145.67,322.167 1145,408.5C 1144.33,420.183 1142,431.516 1138,442.5C 1130.29,461.035 1116.29,470.368 1096,470.5C 1072.99,468.828 1058.32,456.828 1052,434.5C 1049.04,425.402 1047.37,416.068 1047,406.5C 1046.33,321.5 1046.33,236.5 1047,151.5C 1047.22,132.134 1054.39,115.968 1068.5,103C 1073.89,99.6032 1079.55,97.1032 1085.5,95.5 Z"/></g>
<g><path style="opacity:1" fill="#f16322" d="M 265.5,165.5 C 266.043,165.44 266.376,165.107 266.5,164.5C 230.173,163.5 193.839,163.167 157.5,163.5C 157.5,141.167 157.5,118.833 157.5,96.5C 222.833,96.5 288.167,96.5 353.5,96.5C 353.667,118.836 353.5,141.169 353,163.5C 314.689,242.621 276.522,321.788 238.5,401C 278.499,401.5 318.499,401.667 358.5,401.5C 358.5,423.833 358.5,446.167 358.5,468.5C 288.833,468.5 219.167,468.5 149.5,468.5C 149.333,447.497 149.5,426.497 150,405.5C 188.241,325.352 226.741,245.352 265.5,165.5 Z"/></g>
<g><path style="opacity:1" fill="#f16322" d="M 478.5,242.5 C 515.663,243.498 552.996,243.832 590.5,243.5C 590.5,265.5 590.5,287.5 590.5,309.5C 552.996,309.168 515.663,309.502 478.5,310.5C 477.502,340.662 477.169,370.995 477.5,401.5C 518.5,401.5 559.5,401.5 600.5,401.5C 600.5,423.833 600.5,446.167 600.5,468.5C 532.5,468.5 464.5,468.5 396.5,468.5C 396.5,344.5 396.5,220.5 396.5,96.5C 462.5,96.5 528.5,96.5 594.5,96.5C 594.5,118.833 594.5,141.167 594.5,163.5C 555.5,163.5 516.5,163.5 477.5,163.5C 477.169,190.005 477.502,216.339 478.5,242.5 Z"/></g>
<g><path style="opacity:1" fill="#f16322" d="M 897.5,467.5 C 862.671,468.498 827.671,468.832 792.5,468.5C 792.853,463.006 793.186,457.506 793.5,452C 790.323,399.749 786.489,347.582 782,295.5C 790.703,287.129 799.703,279.129 809,271.5C 812.508,265.298 814.508,258.632 815,251.5C 815.667,240.167 815.667,228.833 815,217.5C 813.094,195.349 810.094,173.349 806,151.5C 802.711,147.912 799.711,148.245 797,152.5C 793.82,165.734 791.153,179.067 789,192.5C 786.573,176.514 784.24,160.514 782,144.5C 778.943,143.549 775.777,143.216 772.5,143.5C 770.172,158.123 768.172,172.789 766.5,187.5C 765.833,188.167 765.167,188.833 764.5,189.5C 762.417,174.503 760.25,159.503 758,144.5C 754.943,143.549 751.777,143.216 748.5,143.5C 746.22,158.796 744.22,174.13 742.5,189.5C 741.833,189.5 741.167,189.5 740.5,189.5C 738.579,176.727 736.079,164.06 733,151.5C 730,147.5 727,147.5 724,151.5C 719.38,178.671 716.213,206.004 714.5,233.5C 713.702,247.177 716.202,260.177 722,272.5C 730.964,279.795 739.63,287.462 748,295.5C 744.343,342.454 741.01,389.454 738,436.5C 737.263,447.193 737.43,457.86 738.5,468.5C 709.5,468.5 680.5,468.5 651.5,468.5C 651.5,344.5 651.5,220.5 651.5,96.5C 703.184,96.0663 754.85,96.5663 806.5,98C 826.836,99.9014 844.836,107.235 860.5,120C 875.329,135.836 883.495,154.669 885,176.5C 886.092,194.247 885.425,211.913 883,229.5C 877.127,254.376 862.293,271.542 838.5,281C 837.167,283.667 837.167,286.333 838.5,289C 861.061,292.336 875.561,304.836 882,326.5C 884.362,364.499 886.696,402.499 889,440.5C 888.926,450.572 891.759,459.572 897.5,467.5 Z"/></g>
<g><path style="opacity:1" fill="#fefefe" d="M 1087.5,104.5 C 1107.63,101.148 1122.13,108.481 1131,126.5C 1133.53,133.977 1135.2,141.644 1136,149.5C 1136.67,236.5 1136.67,323.5 1136,410.5C 1134.81,420.771 1132.48,430.771 1129,440.5C 1122.86,454.246 1112.19,461.246 1097,461.5C 1077.03,459.872 1064.69,449.205 1060,429.5C 1057.91,422.65 1056.58,415.65 1056,408.5C 1055.33,322.167 1055.33,235.833 1056,149.5C 1056.97,133.737 1063.14,120.57 1074.5,110C 1078.72,107.549 1083.05,105.715 1087.5,104.5 Z"/></g>
<g><path style="opacity:1" fill="#9e7a6e" d="M 157.5,163.5 C 193.839,163.167 230.173,163.5 266.5,164.5C 266.376,165.107 266.043,165.44 265.5,165.5C 229.5,164.833 193.5,164.167 157.5,163.5 Z"/></g>
<g><path style="opacity:1" fill="#fdfdfd" d="M 780.5,477.5 C 770.5,477.5 760.5,477.5 750.5,477.5C 748.735,473.107 747.568,468.44 747,463.5C 746.707,441.478 747.374,419.478 749,397.5C 752.552,362.21 755.219,326.877 757,291.5C 747.964,282.796 738.631,274.462 729,266.5C 724.962,257.108 723.129,247.275 723.5,237C 724.442,218.076 726.276,199.243 729,180.5C 732.911,194.557 735.745,208.89 737.5,223.5C 740.5,223.5 743.5,223.5 746.5,223.5C 748.432,208.143 750.599,192.809 753,177.5C 756.451,192.936 758.951,208.602 760.5,224.5C 763.5,224.5 766.5,224.5 769.5,224.5C 771.835,208.492 774.335,192.492 777,176.5C 779.868,192.074 782.034,207.741 783.5,223.5C 786.5,223.5 789.5,223.5 792.5,223.5C 794.883,208.752 797.716,194.085 801,179.5C 806.315,205.297 807.648,231.297 805,257.5C 804.098,261.122 802.598,264.455 800.5,267.5C 791.223,274.607 782.39,282.273 774,290.5C 773.077,292.034 772.577,293.701 772.5,295.5C 776.386,338.466 779.886,381.466 783,424.5C 783.667,438.5 783.667,452.5 783,466.5C 782.351,470.25 781.518,473.917 780.5,477.5 Z"/></g>
<g><path style="opacity:1" fill="#bd7255" d="M 766.5,187.5 C 766.509,189.308 766.009,190.975 765,192.5C 764.517,191.552 764.351,190.552 764.5,189.5C 765.167,188.833 765.833,188.167 766.5,187.5 Z"/></g>
<g><path style="opacity:1" fill="#ae7762" d="M 740.5,189.5 C 741.167,189.5 741.833,189.5 742.5,189.5C 742.29,195.966 741.623,195.966 740.5,189.5 Z"/></g>
<g><path style="opacity:1" fill="#cf6d45" d="M 478.5,242.5 C 516.167,242.5 553.833,242.5 591.5,242.5C 591.5,265.167 591.5,287.833 591.5,310.5C 553.833,310.5 516.167,310.5 478.5,310.5C 515.663,309.502 552.996,309.168 590.5,309.5C 590.5,287.5 590.5,265.5 590.5,243.5C 552.996,243.832 515.663,243.498 478.5,242.5 Z"/></g>
<g><path style="opacity:1" fill="#9d7b6f" d="M 897.5,467.5 C 898.043,467.56 898.376,467.893 898.5,468.5C 863.002,469.83 827.669,469.83 792.5,468.5C 827.671,468.832 862.671,468.498 897.5,467.5 Z"/></g>
<g><path style="opacity:0.958" fill="#808285" d="M 878.5,881.5 C 868.833,881.5 859.167,881.5 849.5,881.5C 805.397,875.569 779.231,850.569 771,806.5C 769.532,798.558 768.532,790.558 768,782.5C 767.333,724.5 767.333,666.5 768,608.5C 771.306,547.862 803.139,514.695 863.5,509C 961.633,501.3 1006.3,546.467 997.5,644.5C 966.833,644.5 936.167,644.5 905.5,644.5C 905.667,630.163 905.5,615.829 905,601.5C 904.403,596.098 902.736,591.098 900,586.5C 897.374,583.769 894.207,581.936 890.5,581C 881.153,579.268 872.653,581.102 865,586.5C 862.566,589.795 860.899,593.462 860,597.5C 858.359,661.14 858.026,724.806 859,788.5C 861.2,802.694 869.534,809.694 884,809.5C 898.457,809.378 906.124,802.045 907,787.5C 907.5,774.171 907.667,760.837 907.5,747.5C 897.833,747.5 888.167,747.5 878.5,747.5C 878.5,723.5 878.5,699.5 878.5,675.5C 918.5,675.5 958.5,675.5 998.5,675.5C 998.5,741.5 998.5,807.5 998.5,873.5C 977.164,873.667 955.831,873.5 934.5,873C 933.46,865.856 932.293,858.689 931,851.5C 918.171,869.665 900.671,879.665 878.5,881.5 Z"/></g>
<g><path style="opacity:0.948" fill="#818386" d="M 1627.5,790.5 C 1627.5,799.5 1627.5,808.5 1627.5,817.5C 1624.7,837.588 1615.7,854.421 1600.5,868C 1577.23,883.449 1555.4,881.615 1535,862.5C 1520.43,845.798 1513.6,826.298 1514.5,804C 1513.22,781.828 1520.22,762.828 1535.5,747C 1541.34,742.502 1547.67,738.836 1554.5,736C 1556.32,730.655 1556.82,725.155 1556,719.5C 1548.01,666.065 1542.17,612.398 1538.5,558.5C 1537.47,542.055 1542.47,527.889 1553.5,516C 1577.53,504.796 1593.37,511.962 1601,537.5C 1603.83,552.425 1604.16,567.425 1602,582.5C 1597.9,628.309 1592.57,673.976 1586,719.5C 1585.1,725.169 1585.6,730.669 1587.5,736C 1605.07,742.566 1616.9,754.733 1623,772.5C 1624.71,778.581 1626.21,784.581 1627.5,790.5 Z"/></g>
<g><path style="opacity:0.965" fill="#7f8284" d="M -0.5,516.5 C 29.8333,516.5 60.1667,516.5 90.5,516.5C 90.5,560.833 90.5,605.167 90.5,649.5C 106.167,649.5 121.833,649.5 137.5,649.5C 137.5,605.167 137.5,560.833 137.5,516.5C 167.833,516.5 198.167,516.5 228.5,516.5C 228.5,635.5 228.5,754.5 228.5,873.5C 198.167,873.5 167.833,873.5 137.5,873.5C 137.5,825.167 137.5,776.833 137.5,728.5C 121.833,728.5 106.167,728.5 90.5,728.5C 90.5,776.833 90.5,825.167 90.5,873.5C 60.1667,873.5 29.8333,873.5 -0.5,873.5C -0.5,754.5 -0.5,635.5 -0.5,516.5 Z"/></g>
<g><path style="opacity:0.944" fill="#818386" d="M 387.5,881.5 C 376.5,881.5 365.5,881.5 354.5,881.5C 291.288,875.784 258.788,841.118 257,777.5C 256.5,690.501 256.333,603.501 256.5,516.5C 287.167,516.5 317.833,516.5 348.5,516.5C 348.333,608.501 348.5,700.501 349,792.5C 351.613,804.152 358.947,809.819 371,809.5C 385.084,808.378 392.751,800.712 394,786.5C 394.5,696.501 394.667,606.501 394.5,516.5C 424.833,516.5 455.167,516.5 485.5,516.5C 485.667,607.167 485.5,697.834 485,788.5C 481.405,836.746 456.239,866.579 409.5,878C 402.04,879.3 394.707,880.467 387.5,881.5 Z"/></g>
<g><path style="opacity:0.938" fill="#828486" d="M 514.5,516.5 C 545.5,516.5 576.5,516.5 607.5,516.5C 625.024,571.908 642.858,627.241 661,682.5C 659.388,627.149 657.222,571.816 654.5,516.5C 683.833,516.5 713.167,516.5 742.5,516.5C 742.5,635.5 742.5,754.5 742.5,873.5C 711.593,873.829 680.76,873.496 650,872.5C 632.201,817.438 614.201,762.438 596,707.5C 597.669,762.726 599.836,817.893 602.5,873C 573.169,873.5 543.835,873.667 514.5,873.5C 514.5,754.5 514.5,635.5 514.5,516.5 Z"/></g>
<g><path style="opacity:0.955" fill="#808285" d="M 1260.5,516.5 C 1306.5,516.333 1352.5,516.5 1398.5,517C 1422.83,517.551 1444.49,525.218 1463.5,540C 1476.26,553.686 1484.09,569.853 1487,588.5C 1490.68,610.636 1490.01,632.636 1485,654.5C 1479.77,672.388 1469.27,686.221 1453.5,696C 1476.66,706.112 1487.82,723.946 1487,749.5C 1488.1,779.202 1489.76,808.868 1492,838.5C 1491.7,847.234 1494.7,854.567 1501,860.5C 1501.5,864.821 1501.67,869.154 1501.5,873.5C 1469.16,873.667 1436.83,873.5 1404.5,873C 1401.87,867.094 1400.03,860.927 1399,854.5C 1397.87,827.514 1397.2,800.514 1397,773.5C 1397,742.672 1381.83,730.338 1351.5,736.5C 1351.5,782.167 1351.5,827.833 1351.5,873.5C 1321.17,873.5 1290.83,873.5 1260.5,873.5C 1260.5,754.5 1260.5,635.5 1260.5,516.5 Z M 1351.5,588.5 C 1360.21,588.299 1368.87,588.799 1377.5,590C 1387.81,591.641 1394.31,597.475 1397,607.5C 1399.23,620.905 1398.89,634.239 1396,647.5C 1393.6,657.239 1387.43,662.739 1377.5,664C 1368.84,664.5 1360.17,664.666 1351.5,664.5C 1351.5,639.167 1351.5,613.833 1351.5,588.5 Z"/></g>
<g><path style="opacity:1" fill="#fefefe" d="M 916.5,782.5 C 917.496,767.676 917.829,752.676 917.5,737.5C 907.833,737.5 898.167,737.5 888.5,737.5C 888.5,719.833 888.5,702.167 888.5,684.5C 922.167,684.5 955.833,684.5 989.5,684.5C 989.5,744.5 989.5,804.5 989.5,864.5C 973.833,864.5 958.167,864.5 942.5,864.5C 941.08,854.212 940.08,843.879 939.5,833.5C 936.428,833.183 933.428,833.516 930.5,834.5C 916.61,862.038 894.11,874.704 863,872.5C 821.65,873.119 794.983,853.786 783,814.5C 779.842,803.709 777.842,792.709 777,781.5C 776.333,724.167 776.333,666.833 777,609.5C 779.642,553.527 808.808,523.027 864.5,518C 888.765,515.588 912.431,518.255 935.5,526C 964.049,537.229 980.882,558.063 986,588.5C 987.362,604.131 987.862,619.798 987.5,635.5C 963.5,635.5 939.5,635.5 915.5,635.5C 916.35,619.647 915.183,603.98 912,588.5C 909.071,579.904 903.237,574.404 894.5,572C 887.167,571.333 879.833,571.333 872.5,572C 857.895,576.362 850.395,586.196 850,601.5C 849.333,664.167 849.333,726.833 850,789.5C 850.899,804.731 858.732,814.231 873.5,818C 901.308,822.352 915.641,810.518 916.5,782.5 Z"/></g>
<g><path style="opacity:1" fill="#fefefe" d="M 1566.5,519.5 C 1574.94,518.801 1581.77,521.801 1587,528.5C 1589.84,533.172 1591.84,538.172 1593,543.5C 1593.66,559.185 1593.32,574.851 1592,590.5C 1587.87,631.938 1582.87,673.271 1577,714.5C 1576.33,721.833 1576.33,729.167 1577,736.5C 1577.3,738.888 1578.14,741.055 1579.5,743C 1600.12,749.956 1612.62,764.123 1617,785.5C 1621.17,808.47 1617.17,829.803 1605,849.5C 1581.65,876.473 1558.65,876.139 1536,848.5C 1524.35,828.953 1520.68,807.953 1525,785.5C 1529.38,764.123 1541.88,749.956 1562.5,743C 1563.83,740.34 1564.67,737.506 1565,734.5C 1565.67,727.833 1565.67,721.167 1565,714.5C 1557.23,662.903 1551.73,611.07 1548.5,559C 1546.54,544.88 1550.54,532.88 1560.5,523C 1562.43,521.541 1564.43,520.375 1566.5,519.5 Z"/></g>
<g><path style="opacity:1" fill="#fefffe" d="M 8.5,526.5 C 32.5,526.5 56.5,526.5 80.5,526.5C 80.5,570.833 80.5,615.167 80.5,659.5C 102.673,659.831 124.673,659.497 146.5,658.5C 146.5,614.5 146.5,570.5 146.5,526.5C 170.5,526.5 194.5,526.5 218.5,526.5C 218.5,638.833 218.5,751.167 218.5,863.5C 194.5,863.5 170.5,863.5 146.5,863.5C 146.5,815.5 146.5,767.5 146.5,719.5C 124.833,719.5 103.167,719.5 81.5,719.5C 80.5012,767.33 80.1678,815.33 80.5,863.5C 56.5,863.5 32.5,863.5 8.5,863.5C 8.5,751.167 8.5,638.833 8.5,526.5 Z"/></g>
<g><path style="opacity:1" fill="#bbbcbd" d="M 8.5,526.5 C 32.6609,525.502 56.9943,525.169 81.5,525.5C 81.5,569.833 81.5,614.167 81.5,658.5C 103.167,658.5 124.833,658.5 146.5,658.5C 124.673,659.497 102.673,659.831 80.5,659.5C 80.5,615.167 80.5,570.833 80.5,526.5C 56.5,526.5 32.5,526.5 8.5,526.5 Z"/></g>
<g><path style="opacity:1" fill="#c1c2c3" d="M 146.5,526.5 C 170.661,525.502 194.994,525.169 219.5,525.5C 219.5,638.5 219.5,751.5 219.5,864.5C 194.994,864.831 170.661,864.498 146.5,863.5C 170.5,863.5 194.5,863.5 218.5,863.5C 218.5,751.167 218.5,638.833 218.5,526.5C 194.5,526.5 170.5,526.5 146.5,526.5 Z"/></g>
<g><path style="opacity:1" fill="#fefefe" d="M 403.5,785.5 C 404.499,699.335 404.833,613.002 404.5,526.5C 428.167,526.5 451.833,526.5 475.5,526.5C 475.5,612.5 475.5,698.5 475.5,784.5C 474.13,828.347 452.464,856.18 410.5,868C 381.644,874.51 352.977,873.843 324.5,866C 289.285,852.799 270.118,827.299 267,789.5C 266.5,701.501 266.333,613.501 266.5,525.5C 290.5,525.5 314.5,525.5 338.5,525.5C 338.015,615.864 338.515,706.197 340,796.5C 342.5,808.333 349.667,815.5 361.5,818C 386.695,821.639 400.695,810.805 403.5,785.5 Z"/></g>
<g><path style="opacity:1" fill="#dcdcdd" d="M 475.5,784.5 C 475.5,698.5 475.5,612.5 475.5,526.5C 451.833,526.5 428.167,526.5 404.5,526.5C 404.833,613.002 404.499,699.335 403.5,785.5C 403.5,698.833 403.5,612.167 403.5,525.5C 427.833,525.5 452.167,525.5 476.5,525.5C 476.833,612.002 476.499,698.335 475.5,784.5 Z"/></g>
<g><path style="opacity:1" fill="#fefefe" d="M 591.5,853.5 C 591.5,856.833 591.5,860.167 591.5,863.5C 569.167,863.5 546.833,863.5 524.5,863.5C 524.5,750.833 524.5,638.167 524.5,525.5C 549.842,525.167 575.175,525.5 600.5,526.5C 621.577,590.729 642.243,655.062 662.5,719.5C 665.833,719.5 669.167,719.5 672.5,719.5C 669.855,654.828 667.188,590.161 664.5,525.5C 687.167,525.5 709.833,525.5 732.5,525.5C 732.5,638.5 732.5,751.5 732.5,864.5C 707.259,864.828 682.092,864.495 657,863.5C 636.117,797.517 614.45,731.851 592,666.5C 590,668.5 588,670.5 586,672.5C 585.833,677.667 585.667,682.833 585.5,688C 587.615,743.165 589.615,798.332 591.5,853.5 Z"/></g>
<g><path style="opacity:1" fill="#d7d7d8" d="M 1397.5,526.5 C 1355.17,526.5 1312.83,526.5 1270.5,526.5C 1270.5,638.833 1270.5,751.167 1270.5,863.5C 1294.5,863.5 1318.5,863.5 1342.5,863.5C 1318.34,864.498 1294.01,864.831 1269.5,864.5C 1269.5,751.5 1269.5,638.5 1269.5,525.5C 1312.34,525.168 1355,525.501 1397.5,526.5 Z"/></g>
<g><path style="opacity:1" fill="#fefefe" d="M 1397.5,526.5 C 1455.34,529.682 1482.67,560.349 1479.5,618.5C 1480.45,636.607 1476.61,653.607 1468,669.5C 1459.72,680.115 1449.38,688.115 1437,693.5C 1436.5,696.146 1436.34,698.813 1436.5,701.5C 1456.37,704.003 1469.53,714.669 1476,733.5C 1478.09,767.159 1480.09,800.825 1482,834.5C 1482.06,844.582 1484.56,853.915 1489.5,862.5C 1463.67,863.498 1437.67,863.831 1411.5,863.5C 1409.87,859.756 1408.7,855.756 1408,851.5C 1407.9,824.145 1407.23,796.812 1406,769.5C 1405.62,758.402 1402.62,748.069 1397,738.5C 1392.41,732.905 1386.58,729.405 1379.5,728C 1367.17,727.5 1354.84,727.333 1342.5,727.5C 1342.5,772.833 1342.5,818.167 1342.5,863.5C 1318.5,863.5 1294.5,863.5 1270.5,863.5C 1270.5,751.167 1270.5,638.833 1270.5,526.5C 1312.83,526.5 1355.17,526.5 1397.5,526.5 Z M 1351.5,588.5 C 1351.5,613.833 1351.5,639.167 1351.5,664.5C 1360.17,664.666 1368.84,664.5 1377.5,664C 1387.43,662.739 1393.6,657.239 1396,647.5C 1398.89,634.239 1399.23,620.905 1397,607.5C 1394.31,597.475 1387.81,591.641 1377.5,590C 1368.87,588.799 1360.21,588.299 1351.5,588.5 Z"/></g>
<g><path style="opacity:1" fill="#fefefe" d="M 1113.5,586.5 C 1112.5,610.661 1112.17,634.994 1112.5,659.5C 1146.5,659.5 1180.5,659.5 1214.5,659.5C 1214.5,679.5 1214.5,699.5 1214.5,719.5C 1180.5,719.5 1146.5,719.5 1112.5,719.5C 1112.5,747.5 1112.5,775.5 1112.5,803.5C 1149.5,803.5 1186.5,803.5 1223.5,803.5C 1223.5,823.833 1223.5,844.167 1223.5,864.5C 1162.33,864.832 1101.33,864.499 1040.5,863.5C 1039.84,762.494 1040.5,661.828 1042.5,561.5C 1077.78,566.655 1113.11,566.822 1148.5,562C 1173.35,558.001 1196.01,548.834 1216.5,534.5C 1217.5,551.821 1217.83,569.154 1217.5,586.5C 1182.83,586.5 1148.17,586.5 1113.5,586.5 Z"/></g>
<g><path style="opacity:1" fill="#a1a3a5" d="M 1042.5,561.5 C 1040.5,661.828 1039.84,762.494 1040.5,863.5C 1039.5,762.668 1039.17,661.668 1039.5,560.5C 1040.79,560.263 1041.79,560.596 1042.5,561.5 Z"/></g>
<g><path style="opacity:0.967" fill="#818386" d="M 1342.5,579.5 C 1353.51,579.333 1364.51,579.5 1375.5,580C 1395.47,582.3 1406.3,593.466 1408,613.5C 1409.97,630.325 1407.3,646.325 1400,661.5C 1394.96,667.772 1388.46,671.606 1380.5,673C 1367.84,673.5 1355.17,673.667 1342.5,673.5C 1342.5,642.167 1342.5,610.833 1342.5,579.5 Z M 1351.5,588.5 C 1351.5,613.833 1351.5,639.167 1351.5,664.5C 1360.17,664.666 1368.84,664.5 1377.5,664C 1387.43,662.739 1393.6,657.239 1396,647.5C 1398.89,634.239 1399.23,620.905 1397,607.5C 1394.31,597.475 1387.81,591.641 1377.5,590C 1368.87,588.799 1360.21,588.299 1351.5,588.5 Z"/></g>
<g><path style="opacity:1" fill="#a1a3a5" d="M 1113.5,586.5 C 1113.5,610.5 1113.5,634.5 1113.5,658.5C 1147.34,658.168 1181,658.502 1214.5,659.5C 1180.5,659.5 1146.5,659.5 1112.5,659.5C 1112.17,634.994 1112.5,610.661 1113.5,586.5 Z"/></g>
<g><path style="opacity:1" fill="#babbbc" d="M 888.5,684.5 C 888.5,702.167 888.5,719.833 888.5,737.5C 898.167,737.5 907.833,737.5 917.5,737.5C 917.829,752.676 917.496,767.676 916.5,782.5C 916.5,767.833 916.5,753.167 916.5,738.5C 906.833,738.5 897.167,738.5 887.5,738.5C 887.17,720.326 887.503,702.326 888.5,684.5 Z"/></g>
<g><path style="opacity:1" fill="#c1c2c3" d="M 81.5,719.5 C 81.5,767.833 81.5,816.167 81.5,864.5C 56.9943,864.831 32.6609,864.498 8.5,863.5C 32.5,863.5 56.5,863.5 80.5,863.5C 80.1678,815.33 80.5012,767.33 81.5,719.5 Z"/></g>
<g><path style="opacity:1" fill="#c2c3c4" d="M 591.5,853.5 C 592.482,856.962 592.815,860.629 592.5,864.5C 569.661,864.831 546.994,864.497 524.5,863.5C 546.833,863.5 569.167,863.5 591.5,863.5C 591.5,860.167 591.5,856.833 591.5,853.5 Z"/></g>
<g><path style="opacity:1" fill="#c1c2c3" d="M 1489.5,862.5 C 1490.04,862.56 1490.38,862.893 1490.5,863.5C 1464,864.829 1437.67,864.829 1411.5,863.5C 1437.67,863.831 1463.67,863.498 1489.5,862.5 Z"/></g>
</svg>
